<?xml version="1.0" standalone="no"?>
<!DOCTYPE svg PUBLIC "-//W3C//DTD SVG 20010904//EN"
 "http://www.w3.org/TR/2001/REC-SVG-20010904/DTD/svg10.dtd">
<svg version="1.0" xmlns="http://www.w3.org/2000/svg"
 width="1920.000000pt" height="1920.000000pt" viewBox="0 0 1920.000000 1920.000000"
 preserveAspectRatio="xMidYMid meet">
<metadata>
Created by potrace 1.11, written by Peter Selinger 2001-2013
</metadata>
<g transform="translate(0.000000,1920.000000) scale(0.100000,-0.100000)"
fill="#000000" stroke="none">
<path d="M8568 14895 c-3 -2 -71 -6 -368 -20 -176 -8 -606 -41 -660 -50 -14
-2 -59 -7 -100 -10 -79 -6 -142 -12 -200 -20 -19 -2 -57 -7 -85 -10 -27 -3
-66 -8 -85 -10 -19 -3 -53 -7 -75 -9 -38 -5 -243 -33 -295 -41 -14 -2 -45 -7
-70 -10 -59 -8 -84 -12 -220 -35 -63 -11 -132 -22 -154 -25 -21 -3 -41 -7 -45
-9 -3 -2 -31 -7 -61 -11 -30 -4 -58 -9 -61 -11 -4 -2 -24 -6 -45 -10 -63 -10
-385 -76 -529 -108 -260 -59 -876 -220 -975 -255 -14 -5 -72 -23 -130 -41
-134 -41 -459 -147 -485 -160 -11 -5 -31 -12 -45 -15 -59 -16 -525 -194 -655
-250 -16 -7 -75 -32 -130 -55 -55 -23 -118 -50 -140 -60 -22 -10 -83 -37 -135
-60 -106 -46 -281 -150 -320 -190 -3 -3 -23 -18 -44 -34 -220 -164 -479 -492
-610 -771 -13 -27 -33 -70 -44 -95 -41 -88 -136 -350 -127 -350 2 0 -2 -18
-10 -39 -7 -22 -23 -81 -34 -133 -19 -89 -24 -122 -36 -205 -3 -21 -7 -47 -10
-58 -4 -19 -8 -74 -21 -265 -5 -82 -22 -236 -29 -260 -2 -8 -6 -46 -10 -85 -3
-38 -10 -99 -15 -135 -5 -36 -11 -85 -14 -110 -3 -25 -13 -99 -21 -165 -8 -66
-17 -147 -21 -179 -3 -33 -8 -69 -10 -80 -2 -12 -6 -43 -9 -71 -3 -27 -17
-138 -31 -245 -13 -107 -27 -215 -30 -240 -3 -25 -7 -56 -9 -70 -2 -14 -9 -65
-15 -115 -6 -49 -13 -101 -15 -115 -2 -14 -6 -52 -10 -85 -3 -33 -8 -71 -10
-85 -2 -14 -6 -52 -10 -85 -3 -33 -8 -71 -10 -85 -8 -58 -20 -163 -30 -275 -3
-33 -7 -69 -9 -80 -2 -11 -7 -58 -11 -104 -4 -47 -8 -92 -10 -100 -1 -9 -6
-54 -10 -101 -4 -47 -8 -101 -10 -120 -2 -19 -6 -73 -10 -120 -4 -47 -8 -102
-10 -122 -2 -20 -7 -83 -10 -140 -4 -57 -8 -130 -11 -163 -18 -263 -12 -385
26 -584 l20 -103 -27 -49 c-14 -27 -41 -61 -60 -75 -64 -49 -95 -122 -107
-254 -32 -346 -23 -464 46 -640 81 -205 240 -401 428 -530 152 -104 299 -143
524 -141 200 1 356 35 371 80 3 10 25 26 50 36 l45 17 63 -46 c34 -25 67 -49
72 -54 17 -14 205 -146 233 -164 15 -9 32 -21 37 -25 23 -20 320 -225 440
-304 235 -155 384 -247 545 -337 25 -13 50 -28 55 -32 6 -4 80 -43 165 -87
173 -90 297 -130 460 -149 25 -3 70 -9 100 -14 55 -8 433 -6 480 3 14 3 50 8
80 12 91 10 119 15 260 41 74 14 146 28 160 30 14 3 156 34 315 68 282 62 316
69 400 82 22 3 90 16 150 29 61 13 122 26 138 29 15 2 35 7 45 10 9 3 29 8 45
11 69 13 84 17 117 25 19 5 46 11 60 14 14 3 66 14 115 26 50 11 101 23 115
26 14 3 71 16 128 29 56 14 113 27 125 29 12 2 61 13 109 25 48 11 99 23 113
25 14 3 33 7 43 10 9 3 28 7 42 10 14 3 88 19 165 36 77 16 154 33 170 36 17
2 62 11 100 19 39 8 86 17 105 20 19 3 69 12 110 20 41 8 111 19 155 26 44 6
87 12 95 14 8 2 38 6 65 9 28 4 64 9 80 11 17 2 50 6 75 9 25 3 70 8 100 12
83 10 190 11 240 3 25 -4 74 -10 110 -13 83 -9 129 -14 160 -20 14 -3 45 -8
70 -11 180 -23 564 -101 1065 -217 121 -28 258 -59 305 -70 129 -28 660 -138
700 -144 19 -3 43 -7 52 -10 9 -3 27 -7 40 -9 13 -3 43 -9 68 -15 93 -22 561
-122 700 -150 155 -32 370 -67 460 -76 30 -3 66 -7 80 -10 36 -7 223 -18 310
-18 277 -3 683 142 1081 383 158 96 641 427 723 496 30 26 339 234 446 302
l66 41 37 -19 c20 -11 41 -28 47 -39 14 -26 47 -47 85 -54 107 -20 320 -26
435 -12 207 25 424 128 547 260 319 342 428 839 259 1181 -20 40 -53 90 -75
111 -21 22 -48 58 -60 82 -21 41 -21 45 -7 115 19 95 24 128 31 217 3 41 8 86
11 100 5 29 5 371 0 445 -2 28 -7 82 -10 120 -4 39 -8 95 -11 125 -2 30 -6 69
-9 85 -2 17 -7 57 -11 90 -3 33 -8 67 -10 75 -2 8 -6 42 -10 75 -3 33 -8 71
-10 85 -6 34 -14 92 -20 143 -3 23 -7 51 -9 63 -2 12 -7 45 -11 75 -11 97 -16
134 -20 159 -2 14 -6 50 -9 80 -3 30 -8 78 -11 105 -2 28 -7 84 -10 125 -7 95
-16 189 -21 215 -2 11 -6 43 -9 70 -3 28 -7 66 -10 85 -3 19 -7 60 -10 90 -3
30 -8 69 -10 85 -6 42 -23 189 -30 260 -4 33 -8 71 -10 85 -2 14 -7 46 -10 73
-9 80 -15 130 -20 177 -18 164 -23 208 -29 255 -8 57 -16 124 -21 165 -2 19
-6 51 -9 70 -3 19 -13 89 -21 155 -9 66 -18 136 -20 155 -12 83 -25 168 -31
205 -3 22 -7 49 -9 60 -4 26 -25 152 -30 188 -3 15 -7 42 -10 60 -3 17 -7 43
-10 57 -3 14 -7 39 -10 55 -3 17 -7 39 -9 50 -2 11 -11 61 -20 110 -18 95 -40
167 -87 279 -16 37 -29 74 -29 81 0 7 -3 15 -7 17 -5 2 -26 39 -48 82 -144
284 -403 582 -678 779 -230 165 -426 265 -709 363 -89 30 -200 70 -247 89
-109 42 -398 145 -539 191 -232 77 -388 127 -417 134 -16 4 -70 20 -120 35
-123 37 -353 101 -545 151 -30 8 -122 30 -205 50 -82 20 -157 37 -165 39 -234
57 -638 136 -955 189 -188 31 -253 42 -320 51 -113 15 -194 27 -215 30 -14 2
-52 7 -85 10 -33 3 -71 8 -85 10 -40 7 -97 14 -210 25 -147 14 -209 21 -250
25 -35 4 -124 11 -250 20 -36 3 -92 8 -125 10 -33 3 -114 8 -180 11 -66 3
-147 8 -180 10 -65 6 -1162 14 -1167 9z"/>
<path d="M1275 12162 c-2 -2 -75 -6 -162 -7 -199 -4 -262 -16 -383 -75 -111
-55 -226 -160 -286 -263 -29 -49 -39 -82 -54 -176 -25 -151 -35 -246 -46 -406
-2 -33 -6 -402 -8 -820 -3 -418 -6 -886 -7 -1040 -2 -327 6 -442 42 -610 23
-107 51 -182 87 -234 20 -30 42 -61 47 -70 6 -9 46 -59 90 -111 91 -108 184
-201 268 -267 l58 -45 26 23 c43 41 55 84 68 254 3 39 10 86 15 105 5 19 12
64 15 100 4 36 8 79 11 95 2 17 6 53 9 80 3 28 8 61 10 75 2 14 11 88 20 165
9 77 18 151 20 165 6 43 18 134 20 160 2 26 14 115 20 160 2 14 7 52 10 85 3
33 10 94 15 135 5 41 12 98 15 125 3 28 8 66 10 85 3 19 7 62 10 95 4 33 8 67
10 75 2 8 7 44 10 80 3 36 8 72 10 80 2 8 7 49 10 90 4 41 8 82 10 90 2 8 6
44 10 80 3 36 8 76 10 90 2 14 6 50 10 80 5 48 15 133 30 250 10 82 25 209 30
265 6 59 11 94 20 145 2 14 7 52 10 85 3 33 8 67 10 75 2 8 7 42 10 75 3 33
12 107 20 165 8 58 17 129 20 159 4 30 8 61 10 70 7 37 18 149 19 191 1 43 0
45 -38 57 -37 13 -152 23 -161 15z"/>
<path d="M16730 12164 c-8 -2 -36 -5 -61 -9 -43 -5 -95 -38 -85 -53 4 -8 54
-336 62 -412 2 -25 6 -54 9 -65 2 -11 7 -45 10 -75 3 -30 8 -66 10 -80 2 -14
7 -50 10 -80 4 -30 9 -63 10 -72 2 -9 7 -48 10 -85 4 -37 8 -75 10 -83 3 -8 7
-40 10 -70 5 -52 10 -91 20 -170 3 -19 7 -60 10 -90 3 -30 8 -68 10 -85 12
-81 25 -196 30 -245 2 -30 7 -71 9 -90 3 -19 12 -96 21 -170 8 -74 17 -151 20
-170 2 -19 7 -60 10 -90 3 -30 8 -66 10 -80 2 -14 7 -52 10 -85 3 -33 8 -73
10 -90 2 -16 6 -50 9 -75 3 -25 15 -124 26 -220 11 -96 23 -195 26 -220 9 -85
14 -125 19 -160 2 -19 7 -59 10 -89 3 -30 7 -57 9 -60 2 -3 7 -37 10 -76 4
-38 9 -81 11 -95 4 -25 22 -154 31 -220 2 -19 6 -48 9 -65 3 -16 7 -48 10 -70
19 -134 26 -184 31 -220 14 -100 60 -122 130 -61 145 126 297 293 369 404 90
141 133 274 142 446 9 145 9 1715 1 2292 l-6 451 -33 54 c-98 161 -254 308
-395 370 -81 36 -162 50 -321 55 -87 2 -174 5 -193 7 -19 2 -42 2 -50 1z"/>
</g>
</svg>
